<svg width="93" height="15" viewBox="0 0 93 15" fill="none" xmlns="http://www.w3.org/2000/svg">
<path d="M1.5 6.43457C0.947715 6.43457 0.5 6.88229 0.5 7.43457C0.5 7.98686 0.947715 8.43457 1.5 8.43457V6.43457ZM92.2071 8.14168C92.5976 7.75115 92.5976 7.11799 92.2071 6.72746L85.8431 0.363503C85.4526 -0.0270219 84.8195 -0.0270219 84.4289 0.363503C84.0384 0.754027 84.0384 1.38719 84.4289 1.77772L90.0858 7.43457L84.4289 13.0914C84.0384 13.4819 84.0384 14.1151 84.4289 14.5056C84.8195 14.8962 85.4526 14.8962 85.8431 14.5056L92.2071 8.14168ZM1.5 8.43457H91.5V6.43457H1.5V8.43457Z" fill="#615CCD"/>
</svg>
