<svg width="61" height="61" viewBox="0 0 61 61" fill="none" xmlns="http://www.w3.org/2000/svg">
<path d="M30.5 59.4341C26.6917 59.4341 22.9206 58.684 19.4022 57.2266C15.8837 55.7692 12.6868 53.6331 9.9939 50.9402C7.301 48.2473 5.16488 45.0503 3.70749 41.5319C2.25011 38.0135 1.5 34.2424 1.5 30.4341C1.5 26.6257 2.25011 22.8547 3.70749 19.3363C5.16488 15.8178 7.301 12.6209 9.9939 9.92798C12.6868 7.23508 15.8837 5.09896 19.4022 3.64157C22.9206 2.18419 26.6917 1.43408 30.5 1.43408C34.3083 1.43408 38.0794 2.18419 41.5978 3.64158C45.1163 5.09896 48.3132 7.23509 51.0061 9.92799C53.699 12.6209 55.8351 15.8178 57.2925 19.3363C58.7499 22.8547 59.5 26.6258 59.5 30.4341C59.5 34.2424 58.7499 38.0135 57.2925 41.5319C55.8351 45.0503 53.699 48.2473 51.0061 50.9402C48.3132 53.6331 45.1163 55.7692 41.5978 57.2266C38.0794 58.684 34.3083 59.4341 30.5 59.4341L30.5 59.4341Z" stroke="#615CCD" stroke-width="2"/>
<path d="M26.582 40.4341L17.582 31.7961L20.372 28.9261L26.532 34.8001L40.574 20.4341L43.418 23.2521L26.582 40.4341Z" fill="#715CCD"/>
</svg>
