<svg width="136" height="26" viewBox="0 0 136 26" fill="none" xmlns="http://www.w3.org/2000/svg">
<path d="M49.0659 7.24497V9.74498C49.0659 10.2116 48.6992 10.5783 48.2325 10.5783H45.7325H42.3992H39.8992C39.4325 10.5783 39.0658 10.2116 39.0658 9.74498V7.24497V4.74496C39.0658 4.27829 38.6992 3.91162 38.2325 3.91162H36.5658C36.0992 3.91162 35.7325 4.27829 35.7325 4.74496V7.24497V10.5783V13.9117V17.245V19.745C35.7325 20.2117 36.0992 20.5784 36.5658 20.5784H38.2325C38.6992 20.5784 39.0658 20.2117 39.0658 19.745V17.245V14.745C39.0658 14.2783 39.4325 13.9117 39.8992 13.9117H42.3992H45.7325H48.2325C48.6992 13.9117 49.0659 14.2783 49.0659 14.745V17.245V19.745C49.0659 20.2117 49.4325 20.5784 49.8992 20.5784H51.5659C52.0325 20.5784 52.3992 20.2117 52.3992 19.745V17.245V13.9117V10.5783V7.24497V4.74496C52.3992 4.27829 52.0325 3.91162 51.5659 3.91162H49.8992C49.4325 3.91162 49.0659 4.27829 49.0659 4.74496V7.24497Z" fill="black"/>
<path d="M95.7329 7.24457H93.2329C92.7662 7.24457 92.3996 6.87791 92.3996 6.41124V3.91123V1.41122C92.3996 0.944549 92.0329 0.577881 91.5662 0.577881H89.8996C89.4329 0.577881 89.0662 0.944549 89.0662 1.41122V3.91123V7.24457V10.5779V13.9113V17.2446V19.7446C89.0662 20.2113 89.4329 20.578 89.8996 20.578H91.5662C92.0329 20.578 92.3996 20.2113 92.3996 19.7446V17.2446V13.9113V11.4113C92.3996 10.9446 92.7662 10.5779 93.2329 10.5779H95.7329H98.2329C98.6996 10.5779 99.0663 10.9446 99.0663 11.4113V13.9113V17.2446V19.7446C99.0663 20.2113 99.4329 20.578 99.8996 20.578H101.566C102.033 20.578 102.4 20.2113 102.4 19.7446V17.2446V13.9113V10.5779V8.07791C102.4 7.61124 102.033 7.24457 101.566 7.24457H99.0663H95.7329Z" fill="black"/>
<path d="M112.4 7.24463H109.066H106.566C106.099 7.24463 105.733 7.6113 105.733 8.07797V10.578V12.2446V13.9113V15.578V17.2447V18.9113V19.7447C105.733 20.2113 106.099 20.578 106.566 20.578H109.066H112.4H115.733H118.233C118.7 20.578 119.066 20.2113 119.066 19.7447V18.078C119.066 17.6113 118.7 17.2447 118.233 17.2447H115.733H112.4H109.9C109.433 17.2447 109.066 16.878 109.066 16.4113C109.066 15.9447 109.433 15.578 109.9 15.578H112.4H115.733H118.233C118.7 15.578 119.066 15.2113 119.066 14.7447V13.9113V12.2446V10.578V8.07797C119.066 7.6113 118.7 7.24463 118.233 7.24463H115.733H112.4ZM115.733 11.4113C115.733 11.878 115.366 12.2446 114.9 12.2446H112.4H109.9C109.433 12.2446 109.066 11.878 109.066 11.4113C109.066 10.9446 109.433 10.578 109.9 10.578H112.4H114.9C115.366 10.578 115.733 10.9446 115.733 11.4113Z" fill="black"/>
<path d="M132.4 7.24463H129.066H125.733H123.233C122.766 7.24463 122.4 7.6113 122.4 8.07797V10.578V13.9113V17.2447V19.7447C122.4 20.2113 122.766 20.578 123.233 20.578H124.9C125.366 20.578 125.733 20.2113 125.733 19.7447V17.2447V13.9113V11.4113C125.733 10.9446 126.1 10.578 126.566 10.578H129.066H131.566C132.033 10.578 132.4 10.9446 132.4 11.4113V13.9113V17.2447V19.7447C132.4 20.2113 132.766 20.578 133.233 20.578H134.9C135.366 20.578 135.733 20.2113 135.733 19.7447V17.2447V13.9113V10.578V8.07797C135.733 7.6113 135.366 7.24463 134.9 7.24463H132.4Z" fill="black"/>
<path d="M65.7325 10.578V13.9113V16.4113C65.7325 16.878 65.3658 17.2447 64.8991 17.2447H62.3991H59.8991C59.4324 17.2447 59.0658 16.878 59.0658 16.4113V13.9113V10.578V8.07797C59.0658 7.6113 58.6991 7.24463 58.2324 7.24463H56.5658C56.0991 7.24463 55.7324 7.6113 55.7324 8.07797V10.578V13.9113V17.2447V19.7447C55.7324 20.2113 56.0991 20.578 56.5658 20.578H59.0658H62.3991H64.8991C65.3658 20.578 65.7325 20.9447 65.7325 21.4114C65.7325 21.878 65.3658 22.2447 64.8991 22.2447H62.3991H59.8991C59.4324 22.2447 59.0658 22.6114 59.0658 23.078V24.7447C59.0658 25.2114 59.4324 25.578 59.8991 25.578H62.3991H65.7325H68.2325C68.6991 25.578 69.0658 25.2114 69.0658 24.7447V23.9114V22.2447V20.578V17.2447V13.9113V10.578V8.07797C69.0658 7.6113 68.6991 7.24463 68.2325 7.24463H66.5658C66.0991 7.24463 65.7325 7.6113 65.7325 8.07797V10.578Z" fill="black"/>
<path d="M79.0662 7.24463H75.7329H73.2329C72.7662 7.24463 72.3996 7.6113 72.3996 8.07797V10.578V13.9113V17.2447V20.578V22.2447V23.9114V24.7447C72.3996 25.2114 72.7662 25.578 73.2329 25.578H74.8996C75.3662 25.578 75.7329 25.2114 75.7329 24.7447V23.9114V22.2447V21.4114C75.7329 20.9447 76.0996 20.578 76.5662 20.578H79.0662H82.3996H84.8996C85.3663 20.578 85.7329 20.2113 85.7329 19.7447V17.2447V13.9113V10.578V8.07797C85.7329 7.6113 85.3663 7.24463 84.8996 7.24463H82.3996H79.0662ZM82.3996 13.9113V16.4113C82.3996 16.878 82.0329 17.2447 81.5663 17.2447H79.0662H76.5662C76.0996 17.2447 75.7329 16.878 75.7329 16.4113V13.9113V11.4113C75.7329 10.9446 76.0996 10.578 76.5662 10.578H79.0662H81.5663C82.0329 10.578 82.3996 10.9446 82.3996 11.4113V13.9113Z" fill="black"/>
<path d="M9.06569 14.7441V16.4108C9.06569 16.8774 8.69902 17.2441 8.23236 17.2441H6.56568C6.09901 17.2441 5.73235 16.8774 5.73235 16.4108V13.9108V10.5774V8.07741C5.73235 7.61074 6.09901 7.24408 6.56568 7.24408H7.04902C7.79902 7.24408 8.16569 6.34407 7.63235 5.8274L4.66567 2.82739C4.33234 2.49406 3.81567 2.49406 3.48234 2.82739L0.498992 5.8274C-0.0343434 6.34407 0.348991 7.24408 1.08233 7.24408H1.56566C2.03233 7.24408 2.399 7.61074 2.399 8.07741V10.5774V13.9108V17.2441V19.7441C2.399 20.2108 2.76567 20.5775 3.23234 20.5775H5.73235H9.06569H11.5657C12.0324 20.5775 12.399 20.2108 12.399 19.7441V17.2441V14.7441C12.399 14.2774 12.0324 13.9108 11.5657 13.9108H9.89903C9.44903 13.9108 9.06569 14.2774 9.06569 14.7441Z" fill="#615CCD"/>
<path d="M19.8989 17.245C19.4322 17.245 19.0656 16.8783 19.0656 16.4117V13.9117V10.5783V7.24497V4.74496C19.0656 4.27829 18.6989 3.91162 18.2322 3.91162H15.7322H12.3989H9.89886C9.43219 3.91162 9.06552 4.27829 9.06552 4.74496V7.24497V9.74498C9.06552 10.2116 9.43219 10.5783 9.89886 10.5783H11.5655C12.0322 10.5783 12.3989 10.2116 12.3989 9.74498V8.0783C12.3989 7.61164 12.7655 7.24497 13.2322 7.24497H14.8989C15.3655 7.24497 15.7322 7.61164 15.7322 8.0783V10.5783V13.9117V16.4117C15.7322 16.8783 15.3655 17.245 14.8989 17.245H14.4155C13.6655 17.245 13.2989 18.145 13.8322 18.6617L16.8156 21.645C17.1489 21.9784 17.6656 21.9784 17.9989 21.645L20.9822 18.6617C21.4989 18.145 21.1322 17.245 20.3989 17.245H19.8989Z" fill="#615CCD"/>
</svg>
