<svg width="163"
     height="31"
     viewBox="0 0 163 31"
     fill="none"
     xmlns="http://www.w3.org/2000/svg">
  <path d="M58.8288 8.04517V11.0452C58.8288 11.6052 58.3888 12.0452 57.8288 12.0452H54.8288H50.8288H47.8288C47.2688 12.0452 46.8288 11.6052 46.8288 11.0452V8.04517V5.04517C46.8288 4.48517 46.3888 4.04517 45.8288 4.04517H43.8288C43.2688 4.04517 42.8288 4.48517 42.8288 5.04517V8.04517V12.0452V16.0452V20.0452V23.0452C42.8288 23.6052 43.2688 24.0452 43.8288 24.0452H45.8288C46.3888 24.0452 46.8288 23.6052 46.8288 23.0452V20.0452V17.0452C46.8288 16.4852 47.2688 16.0452 47.8288 16.0452H50.8288H54.8288H57.8288C58.3888 16.0452 58.8288 16.4852 58.8288 17.0452V20.0452V23.0452C58.8288 23.6052 59.2688 24.0452 59.8288 24.0452H61.8288C62.3888 24.0452 62.8288 23.6052 62.8288 23.0452V20.0452V16.0452V12.0452V8.04517V5.04517C62.8288 4.48517 62.3888 4.04517 61.8288 4.04517H59.8288C59.2688 4.04517 58.8288 4.48517 58.8288 5.04517V8.04517Z"
        fill="black" />
  <path d="M114.829 8.04504H111.829C111.269 8.04504 110.829 7.60504 110.829 7.04504V4.04504V1.04504C110.829 0.485044 110.389 0.0450439 109.829 0.0450439H107.829C107.269 0.0450439 106.829 0.485044 106.829 1.04504V4.04504V8.04504V12.045V16.045V20.045V23.045C106.829 23.605 107.269 24.045 107.829 24.045H109.829C110.389 24.045 110.829 23.605 110.829 23.045V20.045V16.045V13.045C110.829 12.485 111.269 12.045 111.829 12.045H114.829H117.829C118.389 12.045 118.829 12.485 118.829 13.045V16.045V20.045V23.045C118.829 23.605 119.269 24.045 119.829 24.045H121.829C122.389 24.045 122.829 23.605 122.829 23.045V20.045V16.045V12.045V9.04504C122.829 8.48504 122.389 8.04504 121.829 8.04504H118.829H114.829Z"
        fill="black" />
  <path d="M134.829 8.04504H130.829H127.829C127.269 8.04504 126.829 8.48504 126.829 9.04504V12.045V14.045V16.045V18.045V20.045V22.045V23.045C126.829 23.605 127.269 24.045 127.829 24.045H130.829H134.829H138.829H141.829C142.389 24.045 142.829 23.605 142.829 23.045V21.045C142.829 20.485 142.389 20.045 141.829 20.045H138.829H134.829H131.829C131.269 20.045 130.829 19.605 130.829 19.045C130.829 18.485 131.269 18.045 131.829 18.045H134.829H138.829H141.829C142.389 18.045 142.829 17.605 142.829 17.045V16.045V14.045V12.045V9.04504C142.829 8.48504 142.389 8.04504 141.829 8.04504H138.829H134.829ZM138.829 13.045C138.829 13.605 138.389 14.045 137.829 14.045H134.829H131.829C131.269 14.045 130.829 13.605 130.829 13.045C130.829 12.485 131.269 12.045 131.829 12.045H134.829H137.829C138.389 12.045 138.829 12.485 138.829 13.045Z"
        fill="black" />
  <path d="M158.829 8.04504H154.829H150.829H147.829C147.269 8.04504 146.829 8.48504 146.829 9.04504V12.045V16.045V20.045V23.045C146.829 23.605 147.269 24.045 147.829 24.045H149.829C150.389 24.045 150.829 23.605 150.829 23.045V20.045V16.045V13.045C150.829 12.485 151.269 12.045 151.829 12.045H154.829H157.829C158.389 12.045 158.829 12.485 158.829 13.045V16.045V20.045V23.045C158.829 23.605 159.269 24.045 159.829 24.045H161.829C162.389 24.045 162.829 23.605 162.829 23.045V20.045V16.045V12.045V9.04504C162.829 8.48504 162.389 8.04504 161.829 8.04504H158.829Z"
        fill="black" />
  <path d="M78.8286 12.045V16.045V19.045C78.8286 19.605 78.3886 20.045 77.8286 20.045H74.8286H71.8286C71.2686 20.045 70.8286 19.605 70.8286 19.045V16.045V12.045V9.04504C70.8286 8.48504 70.3886 8.04504 69.8286 8.04504H67.8286C67.2686 8.04504 66.8286 8.48504 66.8286 9.04504V12.045V16.045V20.045V23.045C66.8286 23.605 67.2686 24.045 67.8286 24.045H70.8286H74.8286H77.8286C78.3886 24.045 78.8286 24.485 78.8286 25.045C78.8286 25.605 78.3886 26.045 77.8286 26.045H74.8286H71.8286C71.2686 26.045 70.8286 26.485 70.8286 27.045V29.045C70.8286 29.605 71.2686 30.045 71.8286 30.045H74.8286H78.8286H81.8286C82.3886 30.045 82.8286 29.605 82.8286 29.045V28.045V26.045V24.045V20.045V16.045V12.045V9.04504C82.8286 8.48504 82.3886 8.04504 81.8286 8.04504H79.8286C79.2686 8.04504 78.8286 8.48504 78.8286 9.04504V12.045Z"
        fill="black" />
  <path d="M94.8291 8.04504H90.8291H87.8291C87.2691 8.04504 86.8291 8.48504 86.8291 9.04504V12.045V16.045V20.045V24.045V26.045V28.045V29.045C86.8291 29.605 87.2691 30.045 87.8291 30.045H89.8291C90.3891 30.045 90.8291 29.605 90.8291 29.045V28.045V26.045V25.045C90.8291 24.485 91.2691 24.045 91.8291 24.045H94.8291H98.8291H101.829C102.389 24.045 102.829 23.605 102.829 23.045V20.045V16.045V12.045V9.04504C102.829 8.48504 102.389 8.04504 101.829 8.04504H98.8291H94.8291ZM98.8291 16.045V19.045C98.8291 19.605 98.3891 20.045 97.8291 20.045H94.8291H91.8291C91.2691 20.045 90.8291 19.605 90.8291 19.045V16.045V13.045C90.8291 12.485 91.2691 12.045 91.8291 12.045H94.8291H97.8291C98.3891 12.045 98.8291 12.485 98.8291 13.045V16.045Z"
        fill="black" />
  <path d="M10.8288 17.0449V19.0449C10.8288 19.6049 10.3888 20.0449 9.82879 20.0449H7.82879C7.26879 20.0449 6.82879 19.6049 6.82879 19.0449V16.0449V12.0449V9.04495C6.82879 8.48495 7.26879 8.04495 7.82879 8.04495H8.40879C9.30879 8.04495 9.74879 6.96495 9.10879 6.34495L5.54879 2.74495C5.14879 2.34495 4.52879 2.34495 4.12879 2.74495L0.548789 6.34495C-0.0912108 6.96495 0.368789 8.04495 1.24879 8.04495H1.82879C2.38879 8.04495 2.82879 8.48495 2.82879 9.04495V12.0449V16.0449V20.0449V23.0449C2.82879 23.6049 3.26879 24.0449 3.82879 24.0449H6.82879H10.8288H13.8288C14.3888 24.0449 14.8288 23.6049 14.8288 23.0449V20.0449V17.0449C14.8288 16.4849 14.3888 16.0449 13.8288 16.0449H11.8288C11.2888 16.0449 10.8288 16.4849 10.8288 17.0449Z"
        fill="#615CCD" />
  <path d="M23.8286 20.0452C23.2686 20.0452 22.8286 19.6052 22.8286 19.0452V16.0452V12.0452V8.04517V5.04517C22.8286 4.48517 22.3886 4.04517 21.8286 4.04517H18.8286H14.8286H11.8286C11.2686 4.04517 10.8286 4.48517 10.8286 5.04517V8.04517V11.0452C10.8286 11.6052 11.2686 12.0452 11.8286 12.0452H13.8286C14.3886 12.0452 14.8286 11.6052 14.8286 11.0452V9.04517C14.8286 8.48517 15.2686 8.04517 15.8286 8.04517H17.8286C18.3886 8.04517 18.8286 8.48517 18.8286 9.04517V12.0452V16.0452V19.0452C18.8286 19.6052 18.3886 20.0452 17.8286 20.0452H17.2486C16.3486 20.0452 15.9086 21.1252 16.5486 21.7452L20.1286 25.3252C20.5286 25.7252 21.1486 25.7252 21.5486 25.3252L25.1286 21.7452C25.7486 21.1252 25.3086 20.0452 24.4286 20.0452H23.8286Z"
        fill="#615CCD" />
</svg>