<svg width="137" height="13" viewBox="0 0 137 13" fill="none" xmlns="http://www.w3.org/2000/svg">
<path d="M80.6702 10.5805H78.1229V1.02659H80.0882C81.51 1.02659 82.105 1.13011 82.6739 1.49206C83.3595 1.93147 83.7598 2.68142 83.7598 3.57326C83.7598 4.46511 83.4623 4.96965 82.7 5.36998C83.9154 5.87383 84.3288 6.59841 84.3288 7.73567C84.3288 9.48166 83.1264 10.5805 80.6702 10.5805ZM80.6181 2.75956H79.8942V4.71189H80.4632C81.536 4.71189 81.9884 4.41438 81.9884 3.72956C81.9884 3.06941 81.536 2.75956 80.6181 2.75956ZM80.7346 6.44349H79.8942V8.88664H80.773C82.0138 8.88664 82.5444 8.52469 82.5444 7.69728C82.5444 6.84451 81.9631 6.44349 80.7346 6.44349Z" fill="black"/>
<path d="M86.728 3.41834H85.0088V10.5805H86.728V3.41834Z" fill="black"/>
<path d="M86.7411 1.0266H85.0218V2.74585H86.7411V1.0266Z" fill="black"/>
<path d="M91.3072 10.7485C89.187 10.7485 87.4807 9.08064 87.4807 6.99943C87.4807 4.89218 89.1356 3.25039 91.2558 3.25039C92.8846 3.25039 94.307 4.16828 94.863 5.81008H92.9216C92.5727 5.15062 92.0305 4.82774 91.2538 4.82774C90.0644 4.82774 89.211 5.73261 89.211 6.98641C89.211 8.24021 90.1021 9.17113 91.2922 9.17113C92.003 9.17113 92.4945 8.88664 92.9209 8.22718H94.8602C94.2652 9.83059 92.9723 10.7485 91.3072 10.7485Z" fill="black"/>
<path d="M99.1502 10.7485C97.0559 10.7485 95.349 9.06761 95.349 6.99943C95.349 4.94291 97.0552 3.25039 99.1371 3.25039C101.296 3.25039 102.964 4.91823 102.964 7.05153C102.964 9.0683 101.232 10.7485 99.1502 10.7485ZM99.1502 4.82774C98.0252 4.82774 97.082 5.79705 97.082 6.97407C97.082 8.2025 97.9999 9.17181 99.1632 9.17181C100.301 9.17181 101.231 8.2025 101.231 7.00012C101.232 5.81008 100.301 4.82774 99.1502 4.82774Z" fill="black"/>
<path d="M108.286 10.5805V7.0769C108.286 5.16364 107.769 4.82774 106.915 4.82774C106.372 4.82774 105.92 5.06013 105.648 5.4872C105.428 5.83613 105.364 6.25017 105.364 7.20646V10.5805H103.646V3.41834H105.237V4.10385C105.87 3.49648 106.439 3.25039 107.254 3.25039C108.249 3.25039 109.025 3.61234 109.49 4.28482C109.878 4.84077 110.007 5.46116 110.007 6.741V10.5799H108.286V10.5805Z" fill="black"/>
<path d="M114.486 10.7485C112.392 10.7485 110.685 9.06761 110.685 6.99943C110.685 4.94291 112.391 3.25039 114.473 3.25039C116.632 3.25039 118.3 4.91823 118.3 7.05153C118.3 9.0683 116.568 10.7485 114.486 10.7485ZM114.486 4.82774C113.361 4.82774 112.418 5.79705 112.418 6.97407C112.418 8.2025 113.336 9.17181 114.499 9.17181C115.637 9.17181 116.568 8.2025 116.568 7.00012C116.568 5.81008 115.637 4.82774 114.486 4.82774Z" fill="black"/>
<path d="M128.005 10.5805V6.65325C128.005 5.21848 127.462 4.83048 126.66 4.83048C125.701 4.83048 125.213 5.34736 125.213 7.05427V10.5833H123.493V6.65325C123.493 5.24385 123.002 4.83048 122.097 4.83048C121.102 4.83048 120.701 5.36038 120.701 7.05427V10.5833H118.981V3.41834H120.558V4.09082C121.062 3.48346 121.579 3.25039 122.42 3.25039C123.402 3.25039 124.035 3.58629 124.527 4.36228C125.109 3.58629 125.82 3.25039 126.828 3.25039C128.715 3.25039 129.724 4.29784 129.724 6.44349V10.5805H128.005Z" fill="black"/>
<path d="M132.853 12.9723H131.002L132.346 9.90805L129.722 3.41834H131.687L133.278 8.05923L135.01 3.41834H136.99L132.853 12.9723Z" fill="black"/>
<path d="M6.86277 3.94419C6.86277 2.8403 6.39523 1.93121 5.56406 1.42471C5.01861 1.10004 4.38225 0.983154 3.10952 0.983154H0.732895V10.5806H2.51212V6.93121H3.08354C4.44718 6.93121 5.07056 6.82731 5.60302 6.50264C6.38225 6.02212 6.86277 5.04809 6.86277 3.94419ZM5.07056 3.97017C5.07056 4.80134 4.629 5.22991 3.0316 5.22991H2.51212V2.68445H3.10952C4.47315 2.68445 5.07056 2.95718 5.07056 3.97017Z" fill="black" fill-opacity="0.5"/>
<path d="M14.9022 7.0351C14.9022 4.89225 13.2269 3.21692 11.0581 3.21692C8.96717 3.21692 7.25288 4.91822 7.25288 6.98315C7.25288 9.06108 8.96717 10.7494 11.0711 10.7494C13.162 10.7494 14.9022 9.06108 14.9022 7.0351ZM13.162 6.98315C13.162 8.19095 12.2269 9.16497 11.0841 9.16497C9.91522 9.16497 8.99314 8.19095 8.99314 6.95718C8.99314 5.77536 9.94119 4.80134 11.0711 4.80134C12.2269 4.80134 13.162 5.78835 13.162 6.98315Z" fill="black" fill-opacity="0.5"/>
<path d="M25.1115 3.38575H23.2674L21.9557 7.77536L20.7739 3.38575H19.3973L18.1895 7.77536L16.9038 3.38575H15.0466L17.618 10.5806H18.683L20.0726 5.91822L21.4362 10.5806H22.5141L25.1115 3.38575Z" fill="black" fill-opacity="0.5"/>
<path d="M32.8068 7.08705C32.8068 4.85328 31.2353 3.21692 29.0925 3.21692C26.9756 3.21692 25.3003 4.89225 25.3003 7.00913C25.3003 9.11303 27.0016 10.7494 29.1964 10.7494C30.6509 10.7494 32.1444 9.93121 32.6249 8.45069H30.7418C30.3003 8.97017 29.8717 9.16497 29.1574 9.16497C28.1314 9.16497 27.3782 8.61952 27.1704 7.74939H32.7418C32.7938 7.50264 32.8068 7.34679 32.8068 7.08705ZM31.1055 6.22991H27.1184C27.3912 5.30783 28.0925 4.80134 29.1184 4.80134C30.1834 4.80134 30.8847 5.30783 31.1055 6.22991Z" fill="black" fill-opacity="0.5"/>
<path d="M37.1918 4.87926V3.21692H37.0619C36.3217 3.21692 35.958 3.42471 35.5035 4.08705V3.38575H33.9191V10.5806H35.6463V6.58056C35.6463 5.46367 36.1528 4.90523 37.1918 4.87926Z" fill="black" fill-opacity="0.5"/>
<path d="M45.0201 7.08705C45.0201 4.85328 43.4487 3.21692 41.3058 3.21692C39.189 3.21692 37.5136 4.89225 37.5136 7.00913C37.5136 9.11303 39.2149 10.7494 41.4097 10.7494C42.8643 10.7494 44.3578 9.93121 44.8383 8.45069H42.9552C42.5136 8.97017 42.0851 9.16497 41.3708 9.16497C40.3448 9.16497 39.5916 8.61952 39.3838 7.74939H44.9552C45.0071 7.50264 45.0201 7.34679 45.0201 7.08705ZM43.3188 6.22991H39.3318C39.6045 5.30783 40.3058 4.80134 41.3318 4.80134C42.3968 4.80134 43.0981 5.30783 43.3188 6.22991Z" fill="black" fill-opacity="0.5"/>
<path d="M53.3922 10.5806V0.983154H51.6649V4.02212C51.1584 3.46367 50.3273 3.12601 49.4182 3.12601C47.4052 3.12601 45.8208 4.81432 45.8208 6.97017C45.8208 9.10004 47.3922 10.7494 49.4311 10.7494C50.4052 10.7494 51.1195 10.4247 51.8078 9.64549V10.5806H53.3922ZM51.7948 6.94419C51.7948 8.19095 50.8727 9.16497 49.7039 9.16497C48.4961 9.16497 47.561 8.16497 47.561 6.89225C47.561 5.67147 48.4831 4.71043 49.6649 4.71043C50.8727 4.71043 51.7948 5.68445 51.7948 6.94419Z" fill="black" fill-opacity="0.5"/>
<path d="M65.9302 6.93121C65.9302 4.76238 64.3718 3.12601 62.3069 3.12601C61.3718 3.12601 60.7354 3.38575 60.0731 4.04809V0.983154H58.3458V10.5806H59.9302V9.65848C60.6705 10.4507 61.3588 10.7494 62.4237 10.7494C64.4497 10.7494 65.9302 9.10004 65.9302 6.93121ZM64.19 6.94419C64.19 8.25588 63.3328 9.16497 62.0991 9.16497C60.8523 9.16497 59.9692 8.2429 59.9692 6.93121C59.9692 5.63251 60.8523 4.71043 62.0601 4.71043C63.2939 4.71043 64.19 5.65848 64.19 6.94419Z" fill="black" fill-opacity="0.5"/>
<path d="M73.3409 3.38575H71.3539L69.6137 8.04809L68.0163 3.38575H66.0422L68.6786 9.90523L67.328 12.9832H69.1851L73.3409 3.38575Z" fill="black" fill-opacity="0.5"/>
</svg>
